<?xml version="1.0" ?><svg data-name="Layer 1" id="Layer_1" viewBox="0 0 512 512" xmlns="http://www.w3.org/2000/svg"><title/><path d="M477.33,85.56c-1.35-.2-33.1-5.13-33.1-50.45a5.77,5.77,0,0,0-11.53,0c0,44.93-31.79,50.23-33.11,50.45a5.76,5.76,0,0,0,0,11.41c1.35.19,33.11,5.1,33.11,50.42a5.77,5.77,0,0,0,11.53,0c0-44.93,31.78-50.21,33.1-50.42a5.76,5.76,0,0,0,0-11.41Zm-38.87,30.85a52.31,52.31,0,0,0-22.25-25.15A52.43,52.43,0,0,0,438.46,66.1a52.53,52.53,0,0,0,22.25,25.16A52.41,52.41,0,0,0,438.46,116.41Z"/><path d="M101.18,416.29c-1.11-.17-27.51-4.63-27.51-42.15a5.77,5.77,0,0,0-11.53,0c0,37.52-26.39,42-27.47,42.15a5.76,5.76,0,0,0,0,11.41c1.12.16,27.47,4.25,27.47,42.13a5.77,5.77,0,1,0,11.53,0c0-37.51,26.39-42,27.48-42.13a5.76,5.76,0,0,0,0-11.41ZM67.91,441.36A45.39,45.39,0,0,0,50.61,422a45.42,45.42,0,0,0,17.3-19.38A45.42,45.42,0,0,0,85.21,422,45.39,45.39,0,0,0,67.91,441.36Z"/><path d="M416.63,150.43a5.74,5.74,0,0,0-3-2.88l-81.2-33.47L312.7,88.74c-.07-.09-.19-.13-.26-.22a5.8,5.8,0,0,0-1.08-.9,5.31,5.31,0,0,0-.76-.51,6,6,0,0,0-1.47-.4,5.23,5.23,0,0,0-.68-.18l-.13,0c-.06,0-.11,0-.17,0H188c-.06,0-.11,0-.17,0l-.13,0a91.05,91.05,0,0,0-2.15.58,10.16,10.16,0,0,0-1.84,1.41c-.08.09-.19.13-.26.22l-19.72,25.34-81.2,33.47a5.76,5.76,0,0,0-3,2.88L30.25,255.19a5.75,5.75,0,0,0,2,7.27L97.11,305a5.83,5.83,0,0,0,7.89-1.49l16.75-23.72v197.1a5.76,5.76,0,0,0,5.77,5.76H368.63a5.76,5.76,0,0,0,5.76-5.76V279.79l16.76,23.72A5.81,5.81,0,0,0,399,305l64.82-42.54a5.75,5.75,0,0,0,2-7.27Zm-168.56,210-28.35-27.34L242.5,211.86a16.8,16.8,0,0,0,11.14,0l22.78,121.23Zm0-159.16c-9.83,0-15.41-13.37-17.41-19.31l17.41-18.55L265.49,182C263.51,187.91,258,201.27,248.07,201.27Zm0-54.62-46.56-48.6h93.13ZM256,155,307.7,101.1l14,18-41.21,62ZM188.45,101.1,240.13,155l-24.49,26.09-41.2-62Zm208.9,191.19-24-34a5.84,5.84,0,0,0-6.45-2.17,5.77,5.77,0,0,0-4,5.5V471.12H133.28V261.65a5.77,5.77,0,0,0-10.48-3.33l-24,34-56-36.72L89,157.36,165.16,126l44.89,67.6a5.79,5.79,0,0,0,4.33,2.56,5.87,5.87,0,0,0,4.68-1.8l2.86-3a45.35,45.35,0,0,0,10,14.6s0,.06,0,.09L207.82,334a5.73,5.73,0,0,0,1.65,5.21l34.59,33.35c.06.05.14,0,.2.08a5.48,5.48,0,0,0,7.62,0c.06-.05.15,0,.2-.08l34.6-33.35a5.75,5.75,0,0,0,1.65-5.21L264.26,206a.79.79,0,0,1,0-.09,45.35,45.35,0,0,0,10-14.6l2.86,3a5.63,5.63,0,0,0,4.69,1.8,5.79,5.79,0,0,0,4.32-2.56L331,126l76.17,31.4,46.19,98.21Z"/></svg>