<?xml version="1.0" ?><svg data-name="Layer 1" id="Layer_1" viewBox="0 0 512 512" xmlns="http://www.w3.org/2000/svg"><title/><path d="M420.52,286.6a5.77,5.77,0,0,0-4.29,3.19c-.2.4-20.68,41.45-74.63,41.45-52.88,0-65.54-42.43-66.05-44.23a5.8,5.8,0,0,0-3.74-3.86,5.71,5.71,0,0,0-5.34.86c-.87.64-22.57,16.17-137.19,41.44-1.61.35-3.08.8-4.65,1.19a6,6,0,0,0-1.16.29C88,335.8,62.65,351.81,48.29,374.77c-17.62,28.17-12.46,56.35-11.55,60.54V471.5a5.76,5.76,0,0,0,5.77,5.76h401a5.76,5.76,0,0,0,5.77-5.76V434.75c0-118.24-21.31-143.9-23.74-146.45A5.85,5.85,0,0,0,420.52,286.6ZM58.17,380.72C70.61,361,92.79,346.9,124,338.7c8.77,7.41,41.46,38.54,43.8,90.29H47.42C46.44,420.31,45.91,400.21,58.17,380.72Zm379.62,85H48.27V440.52H437.79ZM179.29,429a138.28,138.28,0,0,0-41.73-93.59c8.42-1.88,16.44-3.72,23.87-5.5,2.59,1.81,7.84,6.44,10.56,15.52a5.78,5.78,0,0,0,5.53,4.11,5.54,5.54,0,0,0,1.65-.24,5.77,5.77,0,0,0,3.87-7.18,41.83,41.83,0,0,0-8.34-15.46c6.18-1.54,11.9-3,17.35-4.48,1.7,1,8.18,5.3,11.4,16a5.76,5.76,0,0,0,5.53,4.11,5.54,5.54,0,0,0,1.65-.24,5.76,5.76,0,0,0,3.87-7.17,41.48,41.48,0,0,0-9.17-16.37q8.94-2.52,16.43-4.82a5.47,5.47,0,0,0,1.12.84c.09.05,8.39,4.33,12,16.44a5.76,5.76,0,0,0,5.52,4.12,5.88,5.88,0,0,0,1.65-.24A5.76,5.76,0,0,0,246,327.7a41.57,41.57,0,0,0-10.9-18.21c16.61-5.54,26.43-9.81,32-12.62,6.48,14.22,26.33,45.9,74.53,45.9,45.33,0,69.67-25.33,79.6-39.2C427.07,317,437.29,351.32,437.77,429Z"/><path d="M41.17,185.46H346.3a5.77,5.77,0,0,0,5.77-5.76V152.3a66.67,66.67,0,0,0-9-46.91C332.19,88,313,75.9,286.5,69a5.68,5.68,0,0,0-2.91-.86c-1.06-.25-1.93-.65-3-.88C194.08,48.16,177.38,36.43,176.81,36a5.65,5.65,0,0,0-5.37-1A5.76,5.76,0,0,0,167.65,39c-.09.33-9.48,32.64-48.91,32.64-39.93,0-54.94-29.53-55.56-30.8a5.78,5.78,0,0,0-4.29-3.16,5.65,5.65,0,0,0-5,1.71C52,41.34,35.4,61.25,35.4,151.75V179.7A5.77,5.77,0,0,0,41.17,185.46Zm299.37-11.53H46.94V157.52h293.6Zm-7.35-62.6A56.48,56.48,0,0,1,341.32,146H252.69A96.83,96.83,0,0,1,284.5,80.37C307.43,86.53,324,96.78,333.19,111.33ZM58.51,54.71c8.53,11,27.19,28.44,60.23,28.44,36,0,51.66-22.78,57.32-34.42a193.8,193.8,0,0,0,21.26,8.37,33,33,0,0,0-7.13,12.79,5.76,5.76,0,0,0,3.88,7.18,5.54,5.54,0,0,0,1.65.24,5.77,5.77,0,0,0,5.52-4.11c2.54-8.47,8.16-11.51,8.49-11.68.16-.09.27-.24.42-.33,3.1.94,6.25,1.89,9.82,2.91a33.49,33.49,0,0,0-5.84,11.29A5.77,5.77,0,0,0,218,82.57a5.88,5.88,0,0,0,1.65.24,5.77,5.77,0,0,0,5.53-4.12c2-6.75,5.87-10,7.58-11.12,3.33.89,6.93,1.8,10.62,2.73a33.56,33.56,0,0,0-5.32,10.57,5.76,5.76,0,0,0,3.87,7.18,5.88,5.88,0,0,0,1.65.24,5.77,5.77,0,0,0,5.53-4.12,20.41,20.41,0,0,1,7.05-10.7c4.68,1.11,9.93,2.29,15.11,3.46A106.38,106.38,0,0,0,240.91,146H47C47.4,91.83,54.13,65.92,58.51,54.71Z"/><path d="M471.71,103.84c-1.6-.22-38.95-6-38.95-59a5.77,5.77,0,0,0-11.53,0c0,52.63-37.38,58.8-38.94,59a5.77,5.77,0,0,0,0,11.41c1.59.24,39,6.41,39,59a5.77,5.77,0,1,0,11.53,0c0-52.63,37.38-58.8,39-59a5.77,5.77,0,0,0,0-11.41Zm-44.72,37a59.77,59.77,0,0,0-27.46-31.33A59.76,59.76,0,0,0,427,78.21a59.74,59.74,0,0,0,27.48,31.34A59.75,59.75,0,0,0,427,140.88Z"/><path d="M40.34,277.22c1.11.16,27.51,4.62,27.51,42.15a5.77,5.77,0,0,0,11.53,0c0-37.53,26.4-42,27.48-42.15a5.77,5.77,0,0,0,0-11.41c-1.11-.17-27.51-4.63-27.51-42.15a5.77,5.77,0,0,0-11.53,0c0,37.52-26.4,42-27.48,42.15a5.77,5.77,0,0,0,0,11.41Zm33.28-25.09a45.31,45.31,0,0,0,17.31,19.38A45.29,45.29,0,0,0,73.62,290.9,45.3,45.3,0,0,0,56.3,271.51,45.33,45.33,0,0,0,73.62,252.13Z"/></svg>