<?xml version="1.0" ?><!DOCTYPE svg  PUBLIC '-//W3C//DTD SVG 1.1//EN'  'http://www.w3.org/Graphics/SVG/1.1/DTD/svg11.dtd'><svg height="8.4666mm" style="shape-rendering:geometricPrecision; text-rendering:geometricPrecision; image-rendering:optimizeQuality; fill-rule:evenodd; clip-rule:evenodd" version="1.1" viewBox="0 0 846.66 846.66" width="8.4666mm" xml:space="preserve" xmlns="http://www.w3.org/2000/svg" xmlns:xlink="http://www.w3.org/1999/xlink"><defs><style type="text/css">
   <![CDATA[
    .fil0 {fill:black;fill-rule:nonzero}
   ]]>
  </style></defs><g id="Layer_x0020_1"><path class="fil0" d="M834.55 191.65l-203.87 364.65c-29.48,122.63 -94.05,225.57 -221.81,260.09 -4.02,1.07 -8.08,0.88 -11.76,-0.33 -111.43,-28.83 -222.87,-57.66 -334.3,-86.49 -3.84,-1 -7.14,-3.01 -9.7,-5.67 -79.99,-82.66 -38.6,-170.38 33.33,-240.29 4.01,-3.9 9.2,-5.84 14.39,-5.84l247.39 -0.06 205.59 -436.3c3.74,-7.93 11.88,-12.37 20.13,-11.8 107.2,7.92 195.79,52.09 259.32,139.97 4.82,6.69 5.04,15.3 1.29,22.07zm-720.98 508.44c71.97,-44.05 90.3,-102.81 60.27,-180.98l-64.57 0c-49.83,50.39 -85.61,110.68 -30.29,172.03l34.59 8.95zm104.06 -180.98c24.57,75.64 10.17,143.02 -51.92,194.47l176.05 45.55 0 -96.47c0,-11.43 9.27,-20.69 20.7,-20.69l194.3 0c15.46,-30.92 26.43,-64.19 34.35,-97.79 0.42,-1.83 1.11,-3.63 2.06,-5.34l153.74 -274.98c-68.33,-33.44 -136.65,-66.89 -204.98,-100.33l-161.34 342.38c-3.01,7.72 -10.51,13.2 -19.29,13.2l-143.67 0zm427.31 -351.06l37.58 -70.69c-29.41,-12.96 -61.92,-21.37 -97.52,-25.25l-25.5 54.12 85.44 41.82zm74.11 -51.25l-36.93 69.46 84.94 41.57 24.9 -44.55c-21.16,-26.98 -45.47,-49.14 -72.91,-66.48zm-187.04 566.56l-148.86 0 0 86.48 20.09 5.19c53.67,-15.62 96.44,-46.4 128.77,-91.67z"/></g></svg>